<svg width="17" height="20" viewBox="0 0 17 20" fill="none" xmlns="http://www.w3.org/2000/svg">
<g id="calendar">
<path id="Icone-Depart" fill-rule="evenodd" clip-rule="evenodd" d="M3.99738 4.01138V0H4.99701V4.01138H3.99738ZM14.0067 4.97678L14.0103 3.01105L16.9954 3.01385L16.9987 20H0.000244141L0.00115967 16.0002L0.997986 15.9945L1.01135 19.0092L15.9993 19.0067L16.0081 6.93909L1.00842 6.96326V15.9719L0 15.9857L0.00140381 3.01385L2.97064 3.01508L2.97681 4.97183L6.00049 4.97031L6.00677 3.00375L10.9993 3.01587V4.97678H14.0067ZM11.9944 0V4.01138H12.9941V0H11.9944ZM13.9987 15H10.9987V17H13.9987V15ZM6.99872 15H9.99872V17H6.99872V15ZM5.99872 15H2.99872V17H5.99872V15ZM10.9987 12H13.9987V14H10.9987V12ZM9.99872 12H6.99872V14H9.99872V12ZM2.99872 12H5.99872V14H2.99872V12ZM13.9987 9H10.9987V11H13.9987V9ZM6.99872 9H9.99872V11H6.99872V9ZM5.99872 9H2.99872V11H5.99872V9Z" transform="translate(0.00128174)" fill="#1BA6D2"/>
</g>
</svg>
