<svg width="14" height="16" viewBox="0 0 14 16" fill="none" xmlns="http://www.w3.org/2000/svg">
<path fill-rule="evenodd" clip-rule="evenodd" d="M3.44885 8.61963H3.39563C2.42639 8.60303 1.64221 8.26172 1.06604 7.60889C-0.207889 6.17139 0.00402472 3.70703 0.0269739 3.47168C0.109982 1.69287 0.95715 0.848145 1.65197 0.453613C2.34338 0.0595703 3.06506 0 3.43225 0H3.45178H3.46545H3.4884C4.15686 0.0131836 4.75598 0.172363 5.26867 0.467285C5.95715 0.861328 6.79065 1.70605 6.87365 3.47168C6.8966 3.70703 7.10852 6.17139 5.83459 7.60889C5.25549 8.26172 4.47131 8.60303 3.50158 8.61963H3.46838H3.44885ZM0.914181 3.52832C0.914181 3.53467 0.910763 3.54492 0.910763 3.55469C0.907345 3.57471 0.682247 5.83691 1.73156 7.0166C2.14514 7.48682 2.70422 7.71875 3.43225 7.7251H3.44885H3.46545C4.19641 7.71875 4.75256 7.48682 5.16955 7.0166C6.2218 5.83057 5.98986 3.57764 5.98693 3.55469C5.98352 3.54785 5.98352 3.53809 5.98352 3.52832C5.88098 1.28223 4.36193 0.917969 3.46887 0.897949H3.44201H3.42883C2.70764 0.897949 1.02307 1.15283 0.914181 3.52832Z" transform="translate(3.34473)" fill="white"/>
<path d="M13.591 4.11945C13.591 4.11614 13.591 4.11282 13.591 4.10951C13.591 4.08301 13.5877 4.05651 13.5877 4.0267C13.5678 3.3708 13.5248 1.83705 12.0887 1.34678C12.0788 1.34347 12.0655 1.34015 12.0556 1.33684C10.5632 0.955889 9.32236 0.0946049 9.30912 0.084667C9.10728 -0.0577761 8.82932 -0.00808664 8.68703 0.193984C8.54474 0.396054 8.59438 0.674315 8.79623 0.816758C8.85248 0.85651 10.1695 1.77411 11.8173 2.19812C12.5883 2.47307 12.6744 3.29792 12.6975 4.0532C12.6975 4.08301 12.6975 4.10951 12.7009 4.13601C12.7042 4.43415 12.6843 4.8946 12.6314 5.15962C12.0953 5.46438 9.99409 6.51779 6.79759 6.51779C3.61433 6.51779 1.49988 5.46106 0.960511 5.1563C0.907567 4.89129 0.884404 4.43084 0.891022 4.1327C0.891022 4.1062 0.894331 4.0797 0.894331 4.04988C0.917494 3.2946 1.00353 2.46976 1.77453 2.19481C3.42241 1.7708 4.73939 0.849884 4.79565 0.813445C4.99749 0.671002 5.04713 0.392742 4.90484 0.190671C4.76256 -0.0113993 4.4846 -0.0610887 4.28275 0.0813544C4.26951 0.0912922 3.03526 0.952576 1.53628 1.33353C1.52304 1.33684 1.51311 1.34015 1.50319 1.34347C0.0670806 1.83705 0.0240636 3.3708 0.0042096 4.02338C0.0042096 4.0532 0.0042096 4.0797 0.000900596 4.1062C0.000900596 4.10951 0.000900596 4.11282 0.000900596 4.11614C-0.00240841 4.28839 -0.00571741 5.17287 0.16966 5.61676C0.20275 5.70289 0.262312 5.77576 0.341728 5.82545C0.440998 5.89171 2.82017 7.40889 6.8009 7.40889C10.7816 7.40889 13.1608 5.88839 13.2601 5.82545C13.3362 5.77576 13.3991 5.70289 13.4321 5.61676C13.5976 5.17618 13.5943 4.29171 13.591 4.11945Z" transform="translate(0.00244141 8.58789)" fill="white"/>
</svg>
