<svg width="18" height="18" viewBox="0 0 18 18" fill="none" xmlns="http://www.w3.org/2000/svg">
<rect width="18" height="18" fill="black" fill-opacity="0"/>
<path d="M0.5 6.4C0.5 5.27164 0.500389 4.45545 0.552836 3.81352C0.604807 3.17744 0.705391 2.75662 0.881477 2.41103C1.21703 1.75247 1.75247 1.21703 2.41103 0.881477C2.75662 0.705391 3.17744 0.604807 3.81352 0.552836C4.45545 0.500389 5.27164 0.5 6.4 0.5H11.6C12.7284 0.5 13.5446 0.500389 14.1865 0.552836C14.8226 0.604807 15.2434 0.705391 15.589 0.881477C16.2475 1.21703 16.783 1.75247 17.1185 2.41103C17.2946 2.75662 17.3952 3.17744 17.4472 3.81352C17.4996 4.45545 17.5 5.27164 17.5 6.4V11.6C17.5 12.7284 17.4996 13.5446 17.4472 14.1865C17.3952 14.8226 17.2946 15.2434 17.1185 15.589C16.783 16.2475 16.2475 16.783 15.589 17.1185C15.2434 17.2946 14.8226 17.3952 14.1865 17.4472C13.5446 17.4996 12.7284 17.5 11.6 17.5H6.4C5.27164 17.5 4.45545 17.4996 3.81352 17.4472C3.17744 17.3952 2.75662 17.2946 2.41103 17.1185C1.75247 16.783 1.21703 16.2475 0.881477 15.589C0.705391 15.2434 0.604807 14.8226 0.552836 14.1865C0.500389 13.5446 0.5 12.7284 0.5 11.6V6.4Z" fill="#E1F8FF" stroke="#00ACE2"/>
<path d="M6 9L8 11L12 7" stroke="#00ACE2" stroke-width="2" stroke-linecap="round" stroke-linejoin="round"/>
</svg>
