<svg width="12" height="12" viewBox="0 0 12 12" fill="none" xmlns="http://www.w3.org/2000/svg">
<path fill-rule="evenodd" clip-rule="evenodd" d="M6 0.153992C2.69189 0.153992 0 2.77698 0 6C0 9.22302 2.69189 11.846 6 11.846C9.30811 11.846 12 9.22302 12 6C12 2.77698 9.30811 0.153992 6 0.153992ZM6 1.07697C8.7959 1.07697 11.0527 3.27594 11.0527 5.99994C11.0527 8.72394 8.7959 10.923 6 10.923C3.20361 10.923 0.946777 8.72394 0.946777 5.99994C0.946777 3.27594 3.20361 1.07697 6 1.07697ZM5.52588 2.30701C5.53027 2.04932 5.74219 1.84363 6 1.84698C6.12402 1.84436 6.24365 1.89215 6.33252 1.97882C6.42139 2.06543 6.47217 2.18384 6.47412 2.30798V5.73596L9.24707 7.29297C9.35498 7.35217 9.43408 7.4527 9.4668 7.57147C9.48682 7.6452 9.48779 7.72211 9.4707 7.79517C9.45996 7.83972 9.44287 7.88287 9.41895 7.92297C9.28418 8.14404 8.99805 8.21838 8.77295 8.091L5.7627 6.39899C5.62207 6.32001 5.52588 6.16998 5.52588 6V2.30701Z" fill="#2196F3"/>
</svg>
