<svg width="18" height="14" viewBox="0 0 18 14" fill="none" xmlns="http://www.w3.org/2000/svg">
<path fill-rule="evenodd" clip-rule="evenodd" d="M1 0C0.447754 0 0 0.447754 0 1C0 1.55225 0.447754 2 1 2H17C17.313 2 17.5928 1.85596 17.7759 1.63037C17.916 1.4585 18 1.23926 18 1C18 0.447754 17.5522 0 17 0H1ZM0 7C0 6.44775 0.447754 6 1 6H17C17.5522 6 18 6.44775 18 7C18 7.55225 17.5522 8 17 8H1C0.447754 8 0 7.55225 0 7ZM0 13C0 12.4478 0.447754 12 1 12H17C17.5522 12 18 12.4478 18 13C18 13.5522 17.5522 14 17 14H1C0.447754 14 0 13.5522 0 13Z" fill="white"/>
</svg>
